<svg id="morph-color-animations" xmlns="http://www.w3.org/2000/svg" xmlns:xlink="http://www.w3.org/1999/xlink" viewBox="0 0 300 300" shape-rendering="geometricPrecision" text-rendering="geometricPrecision"><defs><linearGradient id="morph-color-animations-s-path1-fill" x1="0.333333" y1="0.3" x2="0.8" y2="0.841667" spreadMethod="pad" gradientUnits="objectBoundingBox" gradientTransform="translate(0 0)"><stop id="morph-color-animations-s-path1-fill-0" offset="0%" stop-color="#4b5d83"/><stop id="morph-color-animations-s-path1-fill-1" offset="100%" stop-color="#f42a72"/></linearGradient></defs><path id="morph-color-animations-s-path1" d="M150,0C290,0,300,10,300,150s-10,150-150,150-150-10-150-150s10-150,150-150Z" transform="translate(.000001 0)" fill="url(#morph-color-animations-s-path1-fill)" stroke-width="0.6"/><path id="morph-color-animations-s-path2" d="M80,20C55.741488,209.151178,156.348198,209.522927,181.218765,127.264824C215.420724,227.549166,133.160959,278.021478,80.037297,231.86585c-51.518114-45.5031-29.234807-154.354287,2-222.929739" transform="matrix(.720241 0 0 0.825278 64.237017 14.558505)" fill="#fff" stroke-width="0.6"/><ellipse id="morph-color-animations-s-ellipse1" rx="8.749996" ry="8.75" transform="matrix(2.000001 0 0 2 150.000002 252.5)" fill="#fff" stroke-width="0"/></svg>