<?xml version="1.0" encoding="utf-8"?>
<!-- Generator: Adobe Illustrator 24.3.0, SVG Export Plug-In . SVG Version: 6.00 Build 0)  -->
<svg version="1.1" id="Layer_1" xmlns="http://www.w3.org/2000/svg" xmlns:xlink="http://www.w3.org/1999/xlink" x="0px" y="0px"
	 viewBox="0 0 512 512" style="enable-background:new 0 0 512 512;" xml:space="preserve">
<style type="text/css">
	.st0{fill:#949494;}
	.st1{fill:#F1F1F1;}
	.st2{fill:#808080;}
	.st3{fill:#010300;}
	.st4{fill:#919191;}
	.st5{fill:#64FE00;}
</style>
<g id="XMLID_2_">
	<polyline id="XMLID_19_" class="st0" points="404.25,1.26 404.11,1.26 505.95,107.45 505.95,510.74 125.81,510.74 125.81,512 
		507.21,512 507.21,108.71 404.25,1.26 	"/>
	<polyline id="XMLID_20_" class="st1" points="402.85,0 124.54,0 124.54,510.74 505.95,510.74 505.95,107.45 402.85,0 	"/>
	<polygon id="XMLID_39_" class="st2" points="121.74,27.35 4.89,27.35 4.89,152.2 121.74,152.2 372.41,152.2 372.41,27.35 	"/>
	<rect id="XMLID_30_" x="7.27" y="25.25" class="st3" width="367.1" height="124.98"/>
	<polygon id="XMLID_44_" class="st0" points="401.44,1.4 401.44,108.85 504.55,108.85 	"/>
	<polygon id="XMLID_21_" class="st1" points="402.85,0 402.85,107.45 505.95,107.45 	"/>
	<g id="XMLID_37_">
		<polygon id="XMLID_35_" class="st4" points="259.07,216.72 259.07,258.81 203.66,323.33 259.07,387.86 259.07,432.75 
			164.38,323.33 		"/>
		<polygon id="XMLID_38_" class="st4" points="371.29,216.72 371.29,258.81 426.69,323.33 371.29,387.86 371.29,432.75 
			465.97,323.33 		"/>
		<polygon id="XMLID_36_" class="st4" points="314.75,436.67 281.51,436.67 325.84,212.94 359.36,212.94 		"/>
	</g>
	<g id="XMLID_41_">
		<path id="XMLID_43_" class="st5" d="M133.38,86.41l18.8,43.34c0.42,0.7,0.14,1.26-0.42,1.4h-18.8c-0.84,0-1.26-0.28-1.54-1.12
			l-10.66-26.37h-0.14l-10.24,26.37c-0.42,0.84-0.7,1.12-1.4,1.12H90.74c-0.7,0-0.7-0.84-0.42-1.4l19.5-42.5l-17.96-41.1
			c-0.28-0.7,0-1.12,0.42-1.12h18.1c0.7,0,1.12,0,1.4,0.98l9.82,26.51h0.14l10.52-26.51c0.28-0.7,0.56-0.98,1.4-0.98h16.83
			c0.7,0,0.84,0.7,0.56,1.4L133.38,86.41z"/>
		<path id="XMLID_50_" class="st5" d="M165.36,45.03h20.9c0.56,0,0.84,0.14,0.84,0.84c3.09,13.33,8.84,52.74,8.84,52.74
			c1.96-10.38,7.15-38.15,10.38-52.74c0.14-0.56,0.28-0.84,0.84-0.84h20.48c0.56,0,0.56,0.14,0.7,0.7l4.35,84.3
			c0.14,0.84-0.28,1.12-0.7,1.12h-15.85c-0.56,0-0.7-0.14-0.84-0.98c0,0-1.12-56.39-1.26-63.96l-9.68,63.96
			c-0.14,0.7-0.56,0.98-0.98,0.98h-14.73c-0.7,0-0.84-0.14-1.12-0.98c0,0-8-50.36-10.66-65.65l-1.96,65.65
			c-0.14,0.84-0.28,0.98-0.84,0.98h-14.31c-0.56,0-0.84-0.14-0.84-1.12l5.61-84.3C164.66,45.03,164.94,45.03,165.36,45.03z"/>
		<path id="XMLID_56_" class="st5" d="M247.42,131.16c-0.84,0-0.98-0.42-0.98-1.4V45.31c0-0.7,0.14-1.12,0.84-1.12h16.27
			c0.56,0,0.7,0.28,0.7,0.98v70.28h26.65c0.56,0,0.7,0.42,0.56,1.12l-1.54,13.75c-0.14,0.84-0.56,0.98-0.98,0.98h-41.52V131.16z"/>
	</g>
</g>
</svg>
